Coordinates
version=1
nRows=54
nColumns=12
inDegrees=yes

Units are S.I. units (second, meters, Newtons, ...)
Angles are in degrees

endheader
time	SC_y	SC_z	SC_x	AC_y	AC_z	AC_x	GH_y	GH_z	GH_yy	EL_x	PS_y
       0.0              -24.92          10.06          8.101          30.52         -1.888           11.7          93.64          67.07          14.32           79.4          26.12
 0.0003012              -24.92          10.07           8.11          30.52         -1.887           11.7          93.62          67.06          14.31          79.41          26.13
 0.0006025              -24.92          10.07           8.12          30.53         -1.887           11.7          93.59          67.04           14.3          79.41          26.13
 0.0009037              -24.92          10.07          8.131          30.53         -1.886          11.69          93.56          67.03          14.29          79.41          26.13
  0.001205              -24.92          10.07          8.143          30.53         -1.885          11.69          93.53          67.02          14.28          79.41          26.14
  0.001506              -24.92          10.08          8.155          30.53         -1.885          11.68           93.5           67.0          14.27          79.42          26.14
  0.001807              -24.93          10.08          8.168          30.53         -1.884          11.68          93.46          66.99          14.26          79.42          26.15
  0.002109              -24.93          10.08          8.182          30.54         -1.883          11.68          93.43          66.97          14.25          79.42          26.15
   0.00241              -24.93          10.09          8.197          30.54         -1.882          11.67          93.39          66.95          14.24          79.43          26.16
  0.002711              -24.93          10.09          8.213          30.54         -1.881          11.67          93.34          66.93          14.23          79.43          26.17
  0.003012              -24.93          10.09          8.231          30.55          -1.88          11.66           93.3          66.91          14.22          79.44          26.17
  0.003314              -24.94           10.1          8.249          30.55         -1.879          11.65          93.25          66.89           14.2          79.44          26.18
  0.003615              -24.94           10.1          8.269          30.55         -1.878          11.65          93.19          66.86          14.18          79.45          26.19
  0.003916              -24.94          10.11          8.291          30.56         -1.876          11.64          93.14          66.84          14.17          79.45          26.19
  0.004217              -24.94          10.11          8.314          30.56         -1.875          11.63          93.07          66.81          14.15          79.46           26.2
  0.004519              -24.95          10.12           8.34          30.57         -1.873          11.62           93.0          66.78          14.13          79.46          26.21
   0.00482              -24.95          10.12          8.367          30.57         -1.872          11.62          92.93          66.74          14.11          79.47          26.22
  0.005121              -24.95          10.13          8.398          30.58          -1.87          11.61          92.85          66.71          14.08          79.48          26.24
  0.005422              -24.96          10.14           8.43          30.58         -1.868           11.6          92.76          66.67          14.06          79.49          26.25
  0.005724              -24.96          10.14          8.466          30.59         -1.866          11.58          92.67          66.62          14.03           79.5          26.26
  0.006025              -24.96          10.15          8.506           30.6         -1.863          11.57          92.56          66.57           14.0          79.51          26.28
  0.006326              -24.97          10.16          8.549           30.6         -1.861          11.56          92.44          66.52          13.97          79.52          26.29
  0.006627              -24.97          10.17          8.597          30.61         -1.858          11.54          92.32          66.46          13.93          79.53          26.31
  0.006928              -24.98          10.18          8.651          30.62         -1.854          11.52          92.17           66.4          13.89          79.54          26.33
   0.00723              -24.99           10.2           8.71          30.63         -1.851          11.51          92.02          66.33          13.84          79.56          26.35
  0.007531              -24.99          10.21          8.776          30.64         -1.847          11.48          91.84          66.25          13.79          79.57          26.38
  0.007832               -25.0          10.23           8.85          30.66         -1.842          11.46          91.64          66.16          13.73          79.59          26.41
  0.008133              -25.01          10.25          8.933          30.67         -1.837          11.43          91.42          66.05          13.66          79.61          26.44
  0.008435              -25.02          10.27          9.027          30.69         -1.831           11.4          91.17          65.94          13.59          79.64          26.47
  0.008736              -25.03          10.29          9.134          30.71         -1.825          11.37          90.88          65.81          13.51          79.66          26.51
  0.009037              -25.05          10.32          9.256          30.73         -1.817          11.33          90.56          65.66          13.41           79.7          26.56
  0.009338              -25.06          10.35          9.395          30.76         -1.809          11.29          90.18          65.49           13.3          79.73          26.61
   0.00964              -25.08          10.38          9.557          30.79         -1.799          11.23          89.75          65.29          13.18          79.77          26.67
  0.009941               -25.1          10.42          9.745          30.82         -1.787          11.17          89.25          65.07          13.03          79.82          26.74
   0.01024              -25.13          10.47          9.964          30.86         -1.774           11.1          88.67           64.8          12.86          79.87          26.83
   0.01054              -25.16          10.53          10.22          30.91         -1.758          11.02          87.98          64.48          12.65          79.94          26.92
   0.01084              -25.19          10.59          10.53          30.96         -1.739          10.92          87.15          64.11          12.41          80.02          27.04
   0.01115              -25.23          10.67           10.9          31.03         -1.716           10.8          86.17          63.66          12.12          80.11          27.18
   0.01145              -25.28          10.77          11.34          31.11         -1.689          10.66          84.98          63.11          11.77          80.22          27.35
   0.01175              -25.35          10.89          11.89          31.21         -1.655          10.48          83.52          62.45          11.35          80.36          27.55
   0.01205              -25.42          11.03          12.56          31.33         -1.614          10.27          81.73          61.63          10.82          80.53          27.81
   0.01235              -25.52          11.22           13.4          31.49         -1.563          9.998          79.49          60.61          10.16          80.74          28.12
   0.01265              -25.64          11.44          14.46          31.68         -1.498          9.658          76.67          59.32          9.336          81.01          28.52
   0.01295              -25.79          11.74           15.8          31.92         -1.415          9.227          73.08          57.69          8.283          81.35          29.03
   0.01325              -25.98          12.11          17.52          32.23          -1.31          8.674          68.49          55.59          6.936          81.78          29.67
   0.01356              -26.23          12.59          19.72          32.64         -1.174          7.965           62.6           52.9          5.208          82.34          30.51
   0.01386              -26.55           13.2          22.54          33.15         -1.001          7.059          55.08          49.47            3.0          83.05          31.57
   0.01416              -26.95          13.97          26.08          33.79        -0.7839          5.921          45.62          45.15         0.2244          83.94          32.91
   0.01446              -27.43          14.91           30.4          34.58        -0.5189          4.533          34.09          39.89         -3.158          85.03          34.53
   0.01476               -28.0          15.99           35.4          35.49        -0.2116          2.924          20.73          33.79          -7.08           86.3          36.42
   0.01506              -28.61          17.17          40.82          36.47          0.121          1.182          6.259          27.19         -11.33          87.67          38.46
   0.01536              -29.22          18.35          46.23          37.46         0.4537        -0.5593          -8.21          20.59         -15.57          89.03          40.51
   0.01566              -29.78          19.43          51.24          38.37         0.7609         -2.168         -21.57          14.49         -19.49           90.3          42.39
   0.01597              -30.27          20.37          55.55          39.15          1.026         -3.556          -33.1          9.227         -22.88          91.39          44.02
